<svg id="Layer_1" data-name="Layer 1" xmlns="http://www.w3.org/2000/svg" viewBox="0 0 300 300"><defs><style>.cls-1{fill:#a5e3e1;}.cls-2{fill:#303351;}.cls-3{fill:none;}</style></defs><title>icon-strava</title><path class="cls-1" d="M21.08,20.69V210.45L150,278.52l128.91-68.07V20.69ZM254.22,196.52,150,252.53,45.41,196.28V45.57l208.81.24Z"/><path class="cls-2" d="M150,285.4,15,214.11V14.6H285V214.11ZM27.17,206.78,150,271.64l122.83-64.86v-180H27.17Z"/><path class="cls-2" d="M150,259.44,39.33,199.92V39.48l221,.25V200.16Zm-98.5-66.8,98.5,53,98.13-52.74v-141L51.5,51.66Z"/><polygon class="cls-3" points="116.45 120.04 131.96 126.52 131.96 72.61 116.45 72.61 116.45 120.04"/><polygon class="cls-3" points="183.95 72.61 170.27 72.61 170.27 125.8 183.95 120.05 183.95 72.61"/><circle class="cls-3" cx="150" cy="180.73" r="13.28"/><polygon class="cls-3" points="159.32 130.39 159.32 72.61 142.9 72.61 142.9 131.09 150.3 134.18 159.32 130.39"/><path class="cls-3" d="M150,146.07a34.66,34.66,0,1,0,34.66,34.66A34.7,34.7,0,0,0,150,146.07ZM150,205a24.23,24.23,0,1,1,24.23-24.23A24.26,24.26,0,0,1,150,205Z"/><path class="cls-2" d="M167.76,138.72l27.14-11.39V61.66H105.5v65.68l27,11.27a45.61,45.61,0,1,0,35.25.11Zm2.51-66.11H184v47.44l-13.68,5.74ZM132,126.52,116.45,120V72.61H132ZM142.9,72.61h16.42v57.78l-9,3.79-7.4-3.09ZM150,215.39a34.66,34.66,0,1,1,34.66-34.66A34.7,34.7,0,0,1,150,215.39Z"/><path class="cls-2" d="M150,156.5a24.23,24.23,0,1,0,24.23,24.23A24.26,24.26,0,0,0,150,156.5ZM150,194a13.28,13.28,0,1,1,13.28-13.28A13.3,13.3,0,0,1,150,194Z"/></svg>