<svg xmlns="http://www.w3.org/2000/svg" id="Layer_1" x="0px" y="0px" enable-background="new 0 0 500 500" viewBox="0 0 500 500">
  <style>
    .st0{fill:none}.st2{fill:#303351}
  </style>
  <path d="M250.5,223l15.4-6.5V118h-28v99.7L250.5,223z" class="st0"/>
  <path d="M192.8,198.8l26.5,11.1V118h-26.5V198.8z" class="st0"/>
  <path d="M250,279.8c-12.5,0-22.7,10.1-22.7,22.7c0,12.5,10.1,22.7,22.7,22.7c12.5,0,22.6-10.2,22.7-22.7 C272.7,289.9,262.5,279.8,250,279.8z" class="st0"/>
  <path d="M309.1,302.4c0-32.7-26.5-59.1-59.1-59.1c-32.7,0-59.1,26.5-59.1,59.1s26.5,59.1,59.1,59.1 S309.1,335.1,309.1,302.4z M250,343.8c-22.8,0-41.3-18.5-41.3-41.3s18.5-41.3,41.3-41.3s41.3,18.5,41.3,41.3S272.8,343.8,250,343.8 z" class="st0"/>
  <path d="M308,198.9V118h-23.4l0.1,90.7L308,198.9z" class="st0"/>
  <path d="M417.4,323.2V82.6L82,82.2v240.5l168,90.4L417.4,323.2z M178.1,332.3c-16.5-39.7,2.3-85.2,42-101.7L174,211.4 V99.3h152.5v112l-46.3,19.4l0,0c18.8,7.9,33.7,23,41.6,41.8c16.5,39.7-2.3,85.2-42,101.7C240.1,390.8,194.6,372,178.1,332.3z" class="st0"/>
  <path fill="#a5e3e1" d="M40.4,346.9L250,457.5l209.6-110.7v-307H40.4V346.9z M61.2,61.4l377,0.4v273.7L250,436.7L61.2,335.2V61.4z"/>
  <path d="M19.7,19v340.4L250,481l230.3-121.6V19H19.7z M459.6,346.9L250,457.5L40.4,346.9V39.8h419.1v307.1H459.6z" class="st2"/>
  <path d="M438.2,335.6V61.9l-377-0.4v273.7L250,436.7L438.2,335.6z M82,82.2l335.5,0.4v240.6l-167.4,90L82,322.7V82.2z" class="st2"/>
  <path d="M321.9,272.6c-7.8-18.9-22.8-33.9-41.6-41.8l0,0l46.3-19.4v-112H174.1v112.1l46.1,19.2 c-39.7,16.5-58.5,62-42,101.7s62,58.5,101.7,42C319.5,357.8,338.3,312.3,321.9,272.6z M308,118v80.9l-23.3,9.8l-0.1-90.7H308z M219.3,209.9l-26.5-11.1V118h26.5V209.9z M265.9,118v98.6l-15.4,6.5l-12.6-5.3V118H265.9z M190.9,302.4 c0-32.7,26.5-59.1,59.1-59.1c32.7,0,59.1,26.5,59.1,59.1s-26.5,59.1-59.1,59.1C217.3,361.6,190.9,335.1,190.9,302.4z" class="st2"/>
  <path d="M250,261.1c-22.8,0-41.3,18.5-41.3,41.3s18.5,41.3,41.3,41.3s41.3-18.5,41.3-41.3S272.8,261.1,250,261.1z M250,325.1c-12.5,0-22.7-10.1-22.7-22.7c0-12.5,10.1-22.7,22.7-22.7c12.6,0,22.7,10.1,22.7,22.7C272.6,314.9,262.5,325,250,325.1z" class="st2"/>
</svg>
