<svg xmlns="http://www.w3.org/2000/svg" id="Layer_1" x="0px" y="0px" enable-background="new 0 0 500 500" viewBox="0 0 500 500">
  <style>
    .st0{fill:none}
  </style>
  <path d="M250.8,224.8l23.1-9.7V66.9h-42.1l0.1,150L250.8,224.8z" class="st0"/>
  <path d="M164,188.4l39.8,16.7V66.9H164V188.4z" class="st0"/>
  <path d="M250,310.1c-18.8,0-34.1,15.3-34.1,34.1c0,18.8,15.3,34.1,34.1,34.1s34-15.3,34.1-34.1 C284.1,325.4,268.8,310.1,250,310.1z" class="st0"/>
  <path d="M338.9,344.2c0-49.1-39.8-88.9-88.9-88.9s-88.9,39.8-88.9,88.9s39.8,88.9,88.9,88.9 C299.1,433,338.9,393.3,338.9,344.2z M250,406.3c-34.3,0-62.2-27.8-62.2-62.2c0-34.3,27.8-62.2,62.2-62.2 c34.3,0,62.1,27.8,62.2,62.2C312.2,378.5,284.3,406.3,250,406.3z" class="st0"/>
  <path d="M337.2,188.5V66.9H302l0.1,136.4L337.2,188.5z" class="st0"/>
  <path d="M142,389.1c-24.8-59.7,3.5-128.1,63.2-152.9l-69.3-28.9V38.8h229.3v168.4l-69.6,29.2l0,0 c28.3,12,50.7,34.5,62.5,62.9c24.8,59.7-3.5,128.1-63.2,152.9C235.2,477,166.7,448.7,142,389.1z" class="st0"/>
  <path d="M358,299.3c-11.8-28.4-34.2-50.9-62.5-62.9l0,0l69.6-29.2V38.8H135.9v168.5l69.3,28.9c-59.7,24.8-88,93.2-63.2,152.9 s93.2,88,152.9,63.2C354.5,427.5,382.8,359,358,299.3z M337.2,66.9v121.7l-35.1,14.7L302,66.9H337.2z M203.8,205.1L164,188.4V66.9 h39.9L203.8,205.1L203.8,205.1z M273.9,66.9v148.2l-23.1,9.7l-19-7.9l-0.1-150C231.7,66.9,273.9,66.9,273.9,66.9z M161.1,344.2 c0-49.1,39.8-88.9,88.9-88.9s88.9,39.8,88.9,88.9c-0.1,49.1-39.8,88.8-88.9,88.9C200.9,433.1,161.1,393.3,161.1,344.2z"/>
  <path d="M250,282c-34.3,0-62.2,27.8-62.2,62.2c0,34.3,27.8,62.2,62.2,62.2s62.2-27.8,62.2-62.2C312.1,309.9,284.3,282.1,250,282z M250,378.2c-18.8,0-34.1-15.3-34.1-34.1c0-18.8,15.3-34.1,34.1-34.1s34.1,15.3,34.1,34.1C284.1,363,268.8,378.2,250,378.2z"/>
</svg>
